<svg preserveAspectRatio="none" width="100%" height="100%" overflow="visible" style="display: block;" viewBox="0 0 24.9275 24" fill="none" xmlns="http://www.w3.org/2000/svg">
<g id="Inbox">
<path id="&#244;&#128;&#149;&#186;" d="M7.81641 21.4541C7.45898 21.4541 7.18066 21.3398 6.98145 21.1113C6.78809 20.8828 6.69141 20.5723 6.69141 20.1797V18.0176H6.33105C5.48145 18.0176 4.75195 17.8535 4.14258 17.5254C3.53906 17.1973 3.07324 16.7285 2.74512 16.1191C2.42285 15.5039 2.26172 14.7598 2.26172 13.8867V7.06641C2.26172 6.19336 2.42285 5.45215 2.74512 4.84277C3.06738 4.22754 3.5332 3.75586 4.14258 3.42773C4.75781 3.09961 5.50781 2.93555 6.39258 2.93555H17.5986C18.4834 2.93555 19.2305 3.09961 19.8398 3.42773C20.4551 3.75586 20.9238 4.22754 21.2461 4.84277C21.5684 5.45215 21.7295 6.19336 21.7295 7.06641V13.8867C21.7295 14.7598 21.5684 15.5039 21.2461 16.1191C20.9238 16.7285 20.4551 17.1973 19.8398 17.5254C19.2305 17.8535 18.4834 18.0176 17.5986 18.0176H12.2812L9.27539 20.6807C8.97656 20.9443 8.71875 21.1377 8.50195 21.2607C8.29102 21.3896 8.0625 21.4541 7.81641 21.4541ZM8.23828 19.5117L11.0332 16.752C11.2148 16.5645 11.3848 16.4414 11.543 16.3828C11.707 16.3184 11.9238 16.2861 12.1934 16.2861H17.5547C18.3809 16.2861 18.9932 16.0811 19.3916 15.6709C19.7959 15.2549 19.998 14.6396 19.998 13.8252V7.11914C19.998 6.31055 19.7959 5.70117 19.3916 5.29102C18.9932 4.875 18.3809 4.66699 17.5547 4.66699H6.43652C5.61035 4.66699 4.99512 4.875 4.59082 5.29102C4.19238 5.70117 3.99316 6.31055 3.99316 7.11914V13.8252C3.99316 14.6396 4.19238 15.2549 4.59082 15.6709C4.99512 16.0811 5.61035 16.2861 6.43652 16.2861H7.52637C7.77246 16.2861 7.95117 16.3418 8.0625 16.4531C8.17969 16.5586 8.23828 16.7432 8.23828 17.0068V19.5117ZM7.74609 11.7861C7.38281 11.7861 7.07227 11.6572 6.81445 11.3994C6.5625 11.1416 6.43652 10.834 6.43652 10.4766C6.43652 10.1191 6.5625 9.81152 6.81445 9.55371C7.07227 9.2959 7.38281 9.16699 7.74609 9.16699C8.10938 9.16699 8.41699 9.2959 8.66895 9.55371C8.9209 9.81152 9.04688 10.1191 9.04688 10.4766C9.04688 10.834 8.9209 11.1416 8.66895 11.3994C8.41699 11.6572 8.10938 11.7861 7.74609 11.7861ZM12 11.7861C11.6367 11.7861 11.3262 11.6572 11.0684 11.3994C10.8105 11.1416 10.6816 10.834 10.6816 10.4766C10.6816 10.1191 10.8105 9.81152 11.0684 9.55371C11.3262 9.2959 11.6367 9.16699 12 9.16699C12.3574 9.16699 12.665 9.2959 12.9229 9.55371C13.1807 9.81152 13.3096 10.1191 13.3096 10.4766C13.3096 10.834 13.1807 11.1416 12.9229 11.3994C12.665 11.6572 12.3574 11.7861 12 11.7861ZM16.2451 11.7861C15.8877 11.7861 15.5801 11.6572 15.3223 11.3994C15.0703 11.1416 14.9443 10.834 14.9443 10.4766C14.9443 10.1191 15.0703 9.81152 15.3223 9.55371C15.5801 9.2959 15.8877 9.16699 16.2451 9.16699C16.6084 9.16699 16.916 9.2959 17.168 9.55371C17.4258 9.81152 17.5547 10.1191 17.5547 10.4766C17.5547 10.834 17.4258 11.1416 17.168 11.3994C16.916 11.6572 16.6084 11.7861 16.2451 11.7861Z" fill="var(--fill-0, #212121)"/>
</g>
</svg>
