<svg preserveAspectRatio="none" width="100%" height="100%" overflow="visible" style="display: block;" viewBox="0 0 19 19" fill="none" xmlns="http://www.w3.org/2000/svg">
<path id="&#244;&#128;&#136;&#159;" d="M11.3354 19C10.9046 19 10.5875 18.8474 10.384 18.5423C10.1806 18.2431 10.0101 17.8662 9.87246 17.4114L7.99669 11.0033L1.51677 9.10959C1.07999 8.97796 0.717997 8.81342 0.430798 8.61597C0.143599 8.41253 0 8.09542 0 7.66462C0 7.31759 0.128641 7.02141 0.385923 6.7761C0.649189 6.53078 0.975279 6.33633 1.36419 6.19273L16.8999 0.242324C17.1033 0.164541 17.2948 0.104708 17.4743 0.0628248C17.6538 0.0209416 17.8183 0 17.9679 0C18.285 0 18.5363 0.0927413 18.7218 0.278224C18.9073 0.463707 19 0.715006 19 1.03212C19 1.18769 18.9791 1.35522 18.9372 1.53472C18.8953 1.70823 18.8355 1.89671 18.7577 2.10014L12.8432 17.573C12.6756 18.0038 12.4692 18.3478 12.2239 18.6051C11.9786 18.8684 11.6824 19 11.3354 19ZM8.50827 9.37884L13.965 3.92206C14.2343 3.65281 14.5484 3.3686 14.9074 3.06944C15.2724 2.77027 15.6164 2.48906 15.9395 2.22579C15.5387 2.41127 15.1497 2.59376 14.7728 2.77326C14.3958 2.94678 14.0129 3.10833 13.624 3.25791L2.86301 7.36845C2.80318 7.3864 2.7613 7.41033 2.73736 7.44025C2.71941 7.46418 2.71044 7.4911 2.71044 7.52102C2.71044 7.54495 2.72241 7.56889 2.74634 7.59282C2.77027 7.61675 2.81515 7.63769 2.88096 7.65564L8.50827 9.37884ZM11.488 16.3075C11.5179 16.3075 11.5448 16.2926 11.5687 16.2626C11.5927 16.2387 11.6136 16.1968 11.6316 16.137L15.7421 5.376C15.8917 4.98709 16.0532 4.60117 16.2267 4.21823C16.4062 3.8353 16.5917 3.4404 16.7832 3.03354C16.5259 3.36262 16.2417 3.71264 15.9306 4.08361C15.6254 4.44859 15.3412 4.76571 15.0779 5.03496L9.62116 10.4917L11.3444 16.119C11.3683 16.1849 11.3892 16.2327 11.4072 16.2626C11.4311 16.2926 11.458 16.3075 11.488 16.3075Z" fill="var(--fill-0, #14171A)"/>
</svg>
