<svg preserveAspectRatio="none" width="100%" height="100%" overflow="visible" style="display: block;" viewBox="0 0 20 20" fill="none" xmlns="http://www.w3.org/2000/svg">
<path id="grade" d="M5.90535 16.8394L10 14.2499L14.0946 16.8735L13.0222 11.9671L16.6294 8.69615L11.8848 8.25322L10 3.61941L8.11516 8.21914L3.37057 8.66208L6.97776 11.9671L5.90535 16.8394ZM10 16.6532L4.94295 19.8507C4.75464 19.9661 4.56592 20.0146 4.37678 19.9962C4.18763 19.9779 4.01639 19.911 3.86307 19.7957C3.70977 19.6804 3.59146 19.5297 3.50813 19.3436C3.42479 19.1575 3.41145 18.9518 3.46813 18.7264L4.81049 12.7062L0.345897 8.65421C0.179251 8.5022 0.0730178 8.32618 0.0271968 8.12613C-0.0186242 7.92606 -0.00654593 7.73167 0.0634314 7.54298C0.13343 7.35427 0.234258 7.20007 0.365915 7.08039C0.497572 6.9607 0.677553 6.88252 0.905856 6.84583L6.79782 6.30593L9.08511 0.621136C9.16843 0.40973 9.29466 0.253349 9.4638 0.151996C9.63296 0.0506651 9.81169 0 10 0C10.1883 0 10.367 0.0506651 10.5362 0.151996C10.7053 0.253349 10.8316 0.40973 10.9149 0.621136L13.2022 6.30593L19.0941 6.84583C19.3224 6.88252 19.5024 6.9607 19.6341 7.08039C19.7657 7.20007 19.8666 7.35427 19.9366 7.54298C20.0065 7.73167 20.0186 7.92606 19.9728 8.12613C19.927 8.32618 19.8207 8.5022 19.6541 8.65421L15.1895 12.7062L16.5319 18.7264C16.5885 18.9518 16.5752 19.1575 16.4919 19.3436C16.4085 19.5297 16.2902 19.6804 16.1369 19.7957C15.9836 19.911 15.8124 19.9779 15.6232 19.9962C15.4341 20.0146 15.2454 19.9661 15.0571 19.8507L10 16.6532Z" fill="var(--fill-0, #14171A)"/>
</svg>
