<svg preserveAspectRatio="none" width="100%" height="100%" overflow="visible" style="display: block;" viewBox="0 0 19 19" fill="none" xmlns="http://www.w3.org/2000/svg">
<path id="Vector" d="M9.5 12.75C11.0188 12.75 12.25 13.9812 12.25 15.5C12.25 17.0188 11.0188 18.25 9.5 18.25C7.98122 18.25 6.75 17.0188 6.75 15.5C6.75 13.9812 7.98122 12.75 9.5 12.75ZM3.5 6.75C5.01878 6.75 6.25 7.98122 6.25 9.5C6.25 11.0188 5.01878 12.25 3.5 12.25C1.98122 12.25 0.75 11.0188 0.75 9.5C0.75 7.98122 1.98122 6.75 3.5 6.75ZM15.5 6.75C17.0188 6.75 18.25 7.98122 18.25 9.5C18.25 11.0188 17.0188 12.25 15.5 12.25C13.9812 12.25 12.75 11.0188 12.75 9.5C12.75 7.98122 13.9812 6.75 15.5 6.75ZM9.5 0.75C11.0188 0.75 12.25 1.98122 12.25 3.5C12.25 5.01878 11.0188 6.25 9.5 6.25C7.98122 6.25 6.75 5.01878 6.75 3.5C6.75 1.98122 7.98122 0.75 9.5 0.75Z" stroke="var(--stroke-0, black)" stroke-width="1.5"/>
</svg>
