<svg preserveAspectRatio="none" width="100%" height="100%" overflow="visible" style="display: block;" viewBox="0 0 12.4736 8.86944" fill="none" xmlns="http://www.w3.org/2000/svg">
<path id="check" d="M4.18993 7.38871L11.3887 0.189998C11.5126 0.0660675 11.6598 0.0027614 11.8302 8.08414e-05C12.0006 -0.00258583 12.1504 0.0607203 12.2797 0.189998C12.4089 0.319262 12.4736 0.467761 12.4736 0.635498C12.4736 0.80322 12.4089 0.95172 12.2797 1.081L4.71716 8.64348C4.56652 8.79412 4.39077 8.86944 4.18993 8.86944C3.98908 8.86944 3.81334 8.79412 3.6627 8.64348L0.18353 5.16433C0.0595999 5.0404 -0.00156674 4.89323 3.04847e-05 4.72283C0.0016416 4.55243 0.0670792 4.4026 0.196343 4.27333C0.325621 4.14405 0.474121 4.07941 0.641843 4.07941C0.809579 4.07941 0.958079 4.14405 1.08734 4.27333L4.18993 7.38871Z" fill="var(--fill-0, #1976D2)"/>
</svg>
