<svg preserveAspectRatio="none" width="100%" height="100%" overflow="visible" style="display: block;" viewBox="0 0 10.8337 6.0164" fill="none" xmlns="http://www.w3.org/2000/svg">
<path id="expand_less" d="M5.41923 1.5307L1.14613 5.8038C1.00768 5.94227 0.854475 6.0131 0.686525 6.0163C0.518592 6.0195 0.362192 5.94867 0.217326 5.8038C0.0724423 5.65893 0 5.50413 0 5.3394C0 5.17465 0.0752585 5.01702 0.225775 4.86652L4.86155 0.230749C4.94513 0.153833 5.03302 0.0961418 5.1252 0.0576752C5.21737 0.0192252 5.31704 0 5.42423 0C5.53141 0 5.63108 0.0192252 5.72325 0.0576752C5.81543 0.0961418 5.89998 0.153833 5.9769 0.230749L10.6127 4.86652C10.7568 5.01062 10.8304 5.16247 10.8336 5.32207C10.8368 5.48169 10.766 5.63393 10.6211 5.7788C10.4763 5.92367 10.3215 5.9961 10.1567 5.9961C9.99199 5.9961 9.83719 5.92367 9.69233 5.7788L5.41923 1.5307Z" fill="var(--fill-0, #303030)"/>
</svg>
