<svg preserveAspectRatio="none" width="100%" height="100%" overflow="visible" style="display: block;" viewBox="0 0 10.8214 6.02112" fill="none" xmlns="http://www.w3.org/2000/svg">
<path id="expand_more" d="M5.39716 6.02112C5.28998 6.02112 5.19031 6.00189 5.09814 5.96342C5.00596 5.92496 4.92141 5.86727 4.84449 5.79035L0.208714 1.15457C0.0646144 1.01049 -0.00486847 0.854475 0.000264866 0.686525C0.00538153 0.518575 0.0803815 0.362166 0.225265 0.217299C0.370132 0.0724322 0.524931 0 0.689665 0C0.854398 0 1.0092 0.0724322 1.15406 0.217299L5.40216 4.4904L9.67527 0.217299C9.81372 0.0788489 9.96692 0.0121822 10.1349 0.0172989C10.3028 0.0224322 10.4592 0.0974322 10.6041 0.242299C10.7489 0.387166 10.8214 0.541975 10.8214 0.706725C10.8214 0.871458 10.7461 1.02861 10.5956 1.17817L5.95984 5.79035C5.87626 5.86727 5.78837 5.92496 5.69619 5.96342C5.60402 6.00189 5.50435 6.02112 5.39716 6.02112Z" fill="var(--fill-0, #303030)"/>
</svg>
